<svg xmlns="http://www.w3.org/2000/svg" xmlns:xlink="http://www.w3.org/1999/xlink" width="48" height="48" preserveAspectRatio="xMidYMid meet" viewBox="0 0 16 16" style="-ms-transform: rotate(360deg); -webkit-transform: rotate(360deg); transform: rotate(360deg);"><path fill="#fff" d="M1 0v16h3v-1h8v1h3V0H1zm13 10h-1V5h1v5zm0-7h-1V2H3v11h10v-1h1v2H2V1h12v2zM8.5 7.5c0 1.1-.9 2-2 2s-2-.9-2-2s.9-2 2-2s2 .9 2 2z"/><path fill="#fff" d="M7.5 7.5a1 1 0 1 1-2 0a1 1 0 0 1 2 0z"/><rect x="0" y="0" width="16" height="16" fill="rgba(0, 0, 0, 0)" /></svg>